<?xml version="1.0" standalone="no"?>
<!DOCTYPE svg PUBLIC "-//W3C//DTD SVG 20010904//EN"
 "http://www.w3.org/TR/2001/REC-SVG-20010904/DTD/svg10.dtd">
<svg version="1.0" xmlns="http://www.w3.org/2000/svg"
 width="174.000000pt" height="142.000000pt" viewBox="0 0 174.000000 142.000000"
 preserveAspectRatio="xMidYMid meet">
<metadata>
Created by potrace 1.10, written by Peter Selinger 2001-2011
</metadata>
<g transform="translate(0.000000,142.000000) scale(0.100000,-0.100000)"
fill="#000000" stroke="none">
<path d="M639 1093 c-7 -7 -17 -12 -24 -11 -15 3 -95 -58 -95 -73 0 -5 -22
-39 -50 -74 -28 -35 -50 -67 -50 -70 0 -3 -20 -29 -44 -59 -34 -42 -42 -60
-39 -80 5 -22 11 -26 38 -26 27 0 37 7 59 40 46 70 167 190 212 211 52 23 117
24 204 3 36 -9 73 -16 83 -16 10 1 17 -3 15 -8 -4 -11 -314 -301 -372 -348
-43 -34 -44 -35 -133 -33 -71 2 -92 -1 -103 -13 -7 -9 -18 -16 -24 -16 -16 0
-56 -90 -56 -127 0 -56 72 -59 173 -9 l68 34 52 -28 c29 -16 72 -39 97 -51 25
-11 56 -26 69 -32 33 -16 226 -16 243 0 6 7 19 13 28 13 64 1 465 388 472 456
3 27 0 29 -34 32 -34 3 -39 -1 -91 -65 -55 -68 -215 -226 -278 -273 -84 -64
-171 -85 -236 -58 -15 6 -32 12 -38 12 -18 2 -105 46 -105 54 0 11 -49 31 -55
22 -12 -20 211 -120 268 -120 85 0 200 83 391 281 74 77 139 139 144 139 44 0
4 -60 -142 -210 -119 -124 -235 -223 -293 -250 -123 -58 -212 -48 -382 41
l-117 62 -49 -31 c-69 -42 -130 -59 -150 -42 -37 31 0 119 65 153 28 15 50 17
110 13 l75 -5 130 119 c72 66 169 155 217 197 47 43 87 81 87 84 1 8 -91 33
-176 50 -81 15 -140 5 -198 -33 -42 -28 -146 -138 -202 -214 -20 -27 -22 -28
-38 -12 -17 16 -12 25 90 163 163 222 183 230 441 170 l162 -37 76 37 c67 33
79 37 102 26 22 -10 25 -15 19 -44 -4 -17 -15 -41 -24 -51 -23 -27 -110 -66
-148 -66 -26 0 -57 -21 -170 -117 -76 -64 -172 -146 -213 -183 -41 -36 -87
-75 -102 -87 -23 -17 -25 -22 -12 -27 10 -4 25 5 41 24 13 17 28 30 32 30 4 0
29 21 57 46 54 52 179 159 284 245 57 47 77 57 119 62 82 10 136 49 146 108 4
21 4 47 0 59 -12 37 -111 22 -166 -27 -23 -20 -96 -16 -140 8 -9 4 -18 6 -21
4 -3 -3 -26 2 -53 10 -27 8 -52 12 -57 9 -5 -3 -15 -1 -23 6 -21 17 -152 20
-166 3z"/>
</g>
</svg>
