<?xml version="1.0" standalone="no"?>
<!DOCTYPE svg PUBLIC "-//W3C//DTD SVG 20010904//EN"
 "http://www.w3.org/TR/2001/REC-SVG-20010904/DTD/svg10.dtd">
<svg version="1.0" xmlns="http://www.w3.org/2000/svg"
 width="300.000000pt" height="230.000000pt" viewBox="0 0 300.000000 230.000000"
 preserveAspectRatio="xMidYMid meet">
<metadata>
Created by potrace 1.10, written by Peter Selinger 2001-2011
</metadata>
<g transform="translate(0.000000,230.000000) scale(0.100000,-0.100000)"
fill="#000000" stroke="none">
<path d="M892 1915 c-108 -55 -167 -124 -495 -578 -60 -83 -75 -137 -39 -137
30 0 58 27 131 123 69 90 245 279 307 328 30 24 57 41 92 57 9 5 27 14 39 20
29 15 329 16 338 2 3 -5 26 -10 51 -10 24 0 44 -4 44 -10 0 -5 18 -10 40 -10
22 0 40 -4 40 -10 0 -5 13 -10 29 -10 17 0 33 -4 36 -10 3 -5 20 -10 36 -10
42 0 48 -25 13 -62 -39 -41 -411 -392 -523 -493 -254 -229 -334 -296 -349
-291 -73 22 -124 28 -200 24 -72 -3 -96 -9 -141 -33 -86 -48 -151 -140 -151
-217 0 -67 20 -88 85 -88 44 0 69 8 128 39 41 21 99 57 129 80 56 42 75 48
106 32 9 -5 31 -15 47 -22 17 -8 32 -16 35 -19 5 -5 13 -10 89 -52 20 -11 47
-28 61 -37 25 -17 102 -54 150 -73 14 -6 33 -14 42 -19 10 -5 26 -9 36 -9 10
0 22 -4 28 -9 31 -30 287 -31 359 -2 11 5 50 21 86 35 76 31 206 115 293 189
196 169 575 565 621 650 23 44 15 69 -22 65 -21 -2 -46 -27 -107 -103 -150
-188 -478 -496 -654 -615 -94 -64 -194 -102 -279 -108 -101 -6 -214 33 -461
160 -108 55 -198 102 -200 103 -4 3 10 16 283 255 59 52 136 120 170 150 34
30 95 82 135 115 40 33 99 83 131 110 212 185 213 185 279 185 33 0 68 4 78 8
158 77 192 97 231 136 72 73 74 165 5 182 -53 13 -199 -42 -277 -105 -46 -36
-17 -40 -367 47 -225 55 -281 66 -375 69 -104 4 -113 3 -163 -22z"/>
</g>
</svg>
